<svg width="192" height="192" xmlns="http://www.w3.org/2000/svg" xmlns:xlink="http://www.w3.org/1999/xlink" xml:space="preserve" overflow="hidden"><defs><clipPath id="clip0"><rect x="616" y="336" width="192" height="192"/></clipPath></defs><g clip-path="url(#clip0)" transform="translate(-616 -336)"><path d="M656 488 656 449.4 668 449.4 668 476 694.6 476 694.6 488 656 488ZM656 414.6 656 376 694.6 376 694.6 388 668 388 668 414.6 656 414.6ZM729.4 488 729.4 476 756 476 756 449.4 768 449.4 768 488 729.4 488ZM756 414.6 756 388 729.4 388 729.4 376 768 376 768 414.6 756 414.6Z" stroke="#4472C4" stroke-width="0.2" fill="#4472C4"/></g></svg>