<svg width="193" height="194" xmlns="http://www.w3.org/2000/svg" xmlns:xlink="http://www.w3.org/1999/xlink" xml:space="preserve" overflow="hidden"><defs><clipPath id="clip0"><rect x="368" y="339" width="193" height="194"/></clipPath></defs><g clip-path="url(#clip0)" transform="translate(-368 -339)"><path d="M66.9469 172.092 66.9469 145.353 40.2083 145.353 40.2083 133.291 79.0094 133.291 79.0094 172.092 66.9469 172.092ZM113.991 172.092 113.991 133.291 152.792 133.291 152.792 145.353 126.053 145.353 126.053 172.092 113.991 172.092ZM40.2083 98.3094 40.2083 86.2469 66.9469 86.2469 66.9469 59.5083 79.0094 59.5083 79.0094 98.3094 40.2083 98.3094ZM113.991 98.3094 113.991 59.5083 126.053 59.5083 126.053 86.2469 152.792 86.2469 152.792 98.3094 113.991 98.3094Z" fill="#4472C4" transform="matrix(1 0 0 1.00518 368 319.6)"/></g></svg>